<?xml version="1.0" encoding="utf-8"?>
<!-- Generator: Adobe Illustrator 24.3.0, SVG Export Plug-In . SVG Version: 6.00 Build 0)  -->
<svg version="1.1" id="Camada_1" xmlns="http://www.w3.org/2000/svg" xmlns:xlink="http://www.w3.org/1999/xlink" x="0px" y="0px"
	 viewBox="0 0 356.3 162.9" style="enable-background:new 0 0 356.3 162.9;" xml:space="preserve">
<style type="text/css">
	.st0{fill-rule:evenodd;clip-rule:evenodd;fill:#DAAA08;}
</style>
<g>
	<path class="st0" d="M3,52.3v24.4c0,0,63,0,71.3,0c8.3,0,18.9-7.7,18.9-20.3c0-5.1,1.9-8.4-4-15.2l-9.1-10.8
		c-5.2-4.9,0.6-4.9,5-4.9c2.4,0,30.1,0,30.1,0v51.2h23.9V25.5H171V3.6H66.9c-12.7,0-18.9,12.2-18.5,18.5c0.3,6.3,1.5,14.3,12,23.9
		c9.6,8.7-4.8,6.3-6.2,6.3C46.9,52.3,3,52.3,3,52.3L3,52.3z"/>
	<path class="st0" d="M223.8,3.6h-38.5l-21.6,73.1h24l3.9-10.2H217l3.8,10.2h23.5L223.8,3.6L223.8,3.6z M197,48.9l8.3-26.8l7.8,26.8
		H197L197,48.9z"/>
	<path class="st0" d="M320.3,52.3c-9.3,0-9.3-3.4-9.3-3.4c7.9,0,15-11.6,15-23.4c0-11.8-11.6-21.9-20.8-21.9c-9.3,0-51.8,0-51.8,0
		v73.1h26.3V52.3c0,0,11.2,13.2,17.1,18.5c5.8,5.4,6.3,5.8,14.3,5.8c7.9,0,41.3,0,41.3,0V52.3C352.3,52.3,329.5,52.3,320.3,52.3
		L320.3,52.3z M296.4,35.2c-6.7,0-16.7,0-16.7,0V22.1c0,0,11.3,0,16.7,0C304,22.1,305.4,35.2,296.4,35.2L296.4,35.2z"/>
	<polygon class="st0" points="3,85.9 29.9,85.9 36.7,110.3 43,85.9 71.3,85.9 78.6,110.3 85.9,85.9 109.3,85.9 87.9,159 66.4,159 
		57,124.4 46.5,159 24.5,159 3,85.9 	"/>
	<path class="st0" d="M164.5,86.3h-38.5l-21.6,73.1h24l3.9-10.2h25.3l3.8,10.2H185L164.5,86.3L164.5,86.3z M137.8,131.6l8.3-26.8
		l7.8,26.8H137.8L137.8,131.6z"/>
	<path class="st0" d="M320.7,107.8c-4.4,0-9.2,0.5-3.9,5.4l9.1,10.8c6,6.7,5.9,9.6,5.9,14.6c0,12.7-12.5,20.3-20.8,20.3l-57.6,0.4
		c-7.9,0-8.4-0.5-14.3-5.8c-5.8-5.4-17.1-18.5-17.1-18.5v24.4h-26.3V86.3c0,0,42.5,0,51.8,0c9.3,0,20.8,10.1,20.8,21.9
		s-7,23.4-15,23.4c0,0,3.5,3.5,9.3,3.5c5.8,0,28.4,0,28.4,0c1.4,0,15.8,2.4,6.2-6.3c-10.5-9.6-11.7-17.5-12-23.9
		c-0.3-6.3,5.1-19,17.8-19h49.2v21.9H320.7L320.7,107.8z M238.8,118c-6.7,0-16.7,0-16.7,0v-13.2c0,0,11.3,0,16.7,0
		C246.5,104.8,247.8,118,238.8,118L238.8,118z"/>
</g>
</svg>
