<svg id="_x33_0" enable-background="new 0 0 64 64" height="512" viewBox="0 0 64 64" width="512" xmlns="http://www.w3.org/2000/svg"><path d="m32 49c-2.757 0-5 2.243-5 5s2.243 5 5 5 5-2.243 5-5-2.243-5-5-5zm0 8c-1.654 0-3-1.346-3-3s1.346-3 3-3 3 1.346 3 3-1.346 3-3 3z"/><path d="m33 8h2c0-1.654-1.346-3-3-3v2c.551 0 1 .449 1 1z"/><path d="m58 37h2c0-1.654-1.346-3-3-3v2c.551 0 1 .449 1 1z"/><path d="m52.858 41.33c1.078 1.032 2.536 1.67 4.142 1.67 3.309 0 6-2.691 6-6s-2.691-6-6-6-6 2.691-6 6c0 .982.242 1.907.662 2.727l-4.939 3.528-.643-3.855c1.147-.704 1.92-1.959 1.92-3.4 0-2.206-1.794-4-4-4s-4 1.794-4 4 1.794 4 4 4c.052 0 .099-.013.15-.015l.761 4.564-5.709 4.078c-1.454-1.944-3.668-3.286-6.202-3.567v-16.494l8.641-5.185c.706.382 1.502.619 2.359.619 2.757 0 5-2.243 5-5s-2.243-5-5-5-5 2.243-5 5c0 1.136.395 2.172 1.036 3.012l-7.036 4.222v-11.314c3.387-.488 6-3.401 6-6.92 0-3.86-3.14-7-7-7s-7 3.14-7 7c0 3.519 2.613 6.432 6 6.92v7.314l-7.433-4.46c.268-.537.433-1.134.433-1.774 0-2.206-1.794-4-4-4s-4 1.794-4 4 1.794 4 4 4c.83 0 1.601-.255 2.241-.689l8.759 5.255v20.493c-2.535.282-4.748 1.624-6.202 3.567l-5.709-4.078.761-4.564c.051.003.098.016.15.016 2.206 0 4-1.794 4-4s-1.794-4-4-4-4 1.794-4 4c0 1.441.773 2.696 1.92 3.4l-.642 3.855-4.939-3.528c.419-.82.661-1.745.661-2.727 0-3.309-2.691-6-6-6s-6 2.691-6 6 2.691 6 6 6c1.606 0 3.064-.638 4.142-1.67l5.006 3.576-4.559 2.605c-.519-.898-1.479-1.511-2.589-1.511-1.654 0-3 1.346-3 3s1.346 3 3 3c1.443 0 2.649-1.024 2.935-2.382l6.005-3.431 5.838 4.17c-.496 1.114-.778 2.346-.778 3.643 0 4.962 4.038 9 9 9s9-4.038 9-9c0-1.297-.282-2.529-.778-3.644l5.838-4.17 6.005 3.431c.286 1.359 1.492 2.383 2.935 2.383 1.654 0 3-1.346 3-3s-1.346-3-3-3c-1.11 0-2.07.613-2.589 1.512l-4.559-2.605zm-10.858-5.33c0-1.103.897-2 2-2s2 .897 2 2-.897 2-2 2-2-.897-2-2zm2-20c1.654 0 3 1.346 3 3s-1.346 3-3 3-3-1.346-3-3 1.346-3 3-3zm-24 2c-1.103 0-2-.897-2-2s.897-2 2-2 2 .897 2 2-.897 2-2 2zm0 16c1.103 0 2 .897 2 2s-.897 2-2 2-2-.897-2-2 .897-2 2-2zm-11 16c-.551 0-1-.449-1-1s.449-1 1-1 1 .449 1 1-.449 1-1 1zm-2-9c-2.206 0-4-1.794-4-4s1.794-4 4-4 4 1.794 4 4-1.794 4-4 4zm20-33c0-2.757 2.243-5 5-5s5 2.243 5 5-2.243 5-5 5-5-2.243-5-5zm5 53c-3.86 0-7-3.14-7-7s3.14-7 7-7 7 3.14 7 7-3.14 7-7 7zm23-13c.551 0 1 .449 1 1s-.449 1-1 1-1-.449-1-1 .449-1 1-1zm2-15c2.206 0 4 1.794 4 4s-1.794 4-4 4-4-1.794-4-4 1.794-4 4-4z"/><path d="m4 37h2c0-.551.449-1 1-1v-2c-1.654 0-3 1.346-3 3z"/></svg>