<svg id="Capa_1" enable-background="new 0 0 512 512" height="512" viewBox="0 0 512 512" width="512" xmlns="http://www.w3.org/2000/svg"><g><path d="m15 181.001c58.448 0 106 47.103 106 104.999v30c0 108.074 87.477 196 195 196h120c8.284 0 15-6.716 15-15s-6.716-15-15-15c-90.981 0-165-74.467-165-166 0 0-.012-61.03-.015-61.544l35.402 29.553c19.073 15.922 47.443 13.388 63.384-5.706 8.124-9.732 68.762-82.37 76.901-92.12 5.31-6.36 4.458-15.819-1.901-21.128-11.554-9.646-13.88-26.301-5.409-38.742l70.038-102.873c4.266-6.267 3.187-14.731-2.517-19.726-5.701-4.994-14.235-4.949-19.886.106l-97.351 87.12c-9.26 8.287-23.438 8.531-32.976.568l-4.019-3.355c-6.353-5.305-15.821-4.459-21.129 1.901l-72.902 87.328c-34.084-104.744-132.599-177.382-243.62-177.382-8.284 0-15 6.716-15 15v151.001c0 8.284 6.716 15 15 15zm331.741 78.077c-5.294 6.34-14.738 7.238-21.129 1.902l-13.492-11.263c4.287-2.537 8.22-5.829 11.589-9.865l28.839-34.546 23.031 19.226zm-1.236-138.958c20.241 11.465 46.345 9.11 64.147-6.823l5.83-5.218-.92 1.351c-14.281 20.977-13.445 47.856.686 67.583l-20.444 24.49-69.09-57.677zm-67.855 81.282 28.839-34.545 23.03 19.226-28.839 34.545c-5.301 6.349-14.778 7.202-21.127 1.902-.003-.002-.006-.004-.009-.007l-13.184-11.006c-.057-.109-.107-.222-.166-.328 4.235-2.527 8.123-5.793 11.456-9.787zm-247.65-79.721c84.529 7.562 151 78.364 151 164.319 0 8.284 6.716 15 15 15s15-6.716 15-15c0-102.503-79.906-186.786-181-194.434v-61.054c89.528 6.122 168.465 66.525 198.262 150.732-5.594-1.706-11.915-.036-15.897 4.736-5.31 6.359-4.458 15.819 1.902 21.127.009.008.02.017.028.024l24.967 20.842c1.148 9.26 1.738 18.656 1.738 28.027v60c0 69.849 36.539 131.281 91.415 166h-16.415c-90.981 0-165-74.467-165-166v-30c0-69.409-53.038-126.752-121-134.184z"/></g></svg>