<svg height="512pt" viewBox="-34 0 512 512.00346" width="512pt" xmlns="http://www.w3.org/2000/svg"><path d="m221.867188 494.933594v-477.867188c-.007813-9.421875-7.644532-17.0546872-17.066407-17.066406h-187.730469c-9.421874.0117188-17.0585932 7.644531-17.070312 17.066406v477.867188c.0117188 9.421875 7.648438 17.054687 17.070312 17.066406h187.730469c9.421875-.011719 17.058594-7.644531 17.066407-17.066406zm-204.796876-477.867188h187.730469v25.601563h-119.464843c-4.714844 0-8.535157 3.820312-8.535157 8.53125 0 4.714843 3.820313 8.535156 8.535157 8.535156h119.464843v17.066406h-59.730469c-4.714843 0-8.535156 3.820313-8.535156 8.53125 0 4.714844 3.820313 8.535157 8.535156 8.535157h59.730469v17.066406h-119.464843c-4.714844 0-8.535157 3.820312-8.535157 8.53125 0 4.714844 3.820313 8.535156 8.535157 8.535156h119.464843v17.066406h-59.730469c-4.714843 0-8.535156 3.820313-8.535156 8.535156 0 4.710938 3.820313 8.53125 8.535156 8.53125h59.730469v17.066407h-119.464843c-4.714844 0-8.535157 3.820312-8.535157 8.535156 0 4.710937 3.820313 8.53125 8.535157 8.53125h119.464843v17.066406h-59.730469c-4.714843 0-8.535156 3.820313-8.535156 8.535157 0 4.710937 3.820313 8.53125 8.535156 8.53125h59.730469v17.066406h-119.464843c-4.714844 0-8.535157 3.824218-8.535157 8.535156s3.820313 8.535156 8.535157 8.535156h119.464843v17.066406h-59.730469c-4.714843 0-8.535156 3.820313-8.535156 8.53125 0 4.714844 3.820313 8.535157 8.535156 8.535157h59.730469v17.066406h-119.464843c-4.714844 0-8.535157 3.820313-8.535157 8.53125 0 4.714844 3.820313 8.535156 8.535157 8.535156h119.472656v17.066407h-59.738282c-4.714843 0-8.535156 3.820312-8.535156 8.53125 0 4.714843 3.820313 8.535156 8.535156 8.535156h59.738282v17.066406h-119.472656c-4.714844 0-8.535157 3.820312-8.535157 8.535156 0 4.710938 3.820313 8.53125 8.535157 8.53125h119.472656v17.066406h-59.738282c-4.714843 0-8.535156 3.820313-8.535156 8.535157 0 4.710937 3.820313 8.53125 8.535156 8.53125h59.738282v17.066406h-119.472656c-4.714844 0-8.535157 3.820313-8.535157 8.535156 0 4.710938 3.820313 8.53125 8.535157 8.53125h119.472656v25.601563h-187.738282zm0 0"/><path d="m409.601562 486.398438v-121.039063c2.734376 1.011719 5.621094 1.542969 8.535157 1.574219 14.128906-.015625 25.582031-11.46875 25.597656-25.601563v-59.730469c-.027344-23.554687-19.113281-42.640624-42.664063-42.667968h-68.269531c-23.550781.027344-42.636719 19.113281-42.664062 42.667968v59.730469c.015625 14.132813 11.464843 25.585938 25.597656 25.601563 2.914063-.027344 5.800781-.5625 8.535156-1.574219v121.039063c-.046875 10.121093 5.898438 19.304687 15.144531 23.410156 9.246094 4.105468 20.046876 2.355468 27.519532-4.464844 7.476562 6.820312 18.277344 8.570312 27.523437 4.464844 9.246094-4.105469 15.191407-13.289063 15.144531-23.410156zm-93.867187-136.53125c-4.710937-.003907-8.527344-3.824219-8.53125-8.535157v-59.730469c.015625-14.132812 11.464844-25.585937 25.597656-25.601562h68.269531c14.128907.015625 25.582032 11.46875 25.597657 25.601562v59.730469c0 4.714844-3.820313 8.535157-8.53125 8.535157-4.714844 0-8.535157-3.820313-8.535157-8.535157v-42.664062c0-4.714844-3.820312-8.535157-8.53125-8.535157-4.714843 0-8.535156 3.820313-8.535156 8.535157v85.332031h-51.199218v-85.332031c0-4.714844-3.820313-8.535157-8.535157-8.535157-4.710937 0-8.53125 3.820313-8.53125 8.535157v42.664062c-.003906 4.710938-3.824219 8.53125-8.535156 8.535157zm34.132813 145.066406c-4.710938-.003906-8.527344-3.824219-8.53125-8.535156v-85.332032h17.066406v85.332032c-.003906 4.710937-3.824219 8.53125-8.535156 8.535156zm25.601562-8.535156v-85.332032h17.066406v85.332032c0 4.714843-3.820312 8.535156-8.535156 8.535156-4.710938 0-8.53125-3.820313-8.53125-8.535156zm0 0"/><path d="m366.933594 230.398438c23.566406 0 42.667968-19.101563 42.667968-42.664063 0-23.566406-19.101562-42.667969-42.667968-42.667969-23.5625 0-42.664063 19.101563-42.664063 42.667969.027344 23.550781 19.113281 42.636719 42.664063 42.664063zm0-68.265626c14.140625 0 25.601562 11.460938 25.601562 25.601563 0 14.136719-11.460937 25.597656-25.601562 25.597656-14.136719 0-25.597656-11.460937-25.597656-25.597656.015624-14.132813 11.46875-25.585937 25.597656-25.601563zm0 0"/><path d="m279.101562 121.96875c-1.601562-1.601562-3.769531-2.503906-6.03125-2.503906-2.265624 0-4.433593.902344-6.035156 2.503906l-25.59375 25.59375c-3.324218 3.339844-3.324218 8.734375 0 12.078125l25.59375 25.59375c3.347656 3.234375 8.671875 3.1875 11.960938-.105469 3.292968-3.292968 3.339844-8.613281.105468-11.960937l-11.03125-11.035157h47.664063c4.714844 0 8.535156-3.820312 8.535156-8.53125 0-4.714843-3.820312-8.535156-8.535156-8.535156h-47.664063l11.03125-11.035156c1.601563-1.597656 2.5-3.769531 2.5-6.03125s-.898437-4.433594-2.5-6.03125zm0 0"/></svg>