<svg height="512" viewBox="0 0 512 512" width="512" xmlns="http://www.w3.org/2000/svg"><g id="Outline"><path d="m426.278 375.624a208.488 208.488 0 0 0 31.7-169.368c19.863-35.729 32.5-69.558 36.557-97.987 4.522-31.7-1.6-56.979-17.716-73.1s-43.633-22.69-73.1-17.7c-62.219 10.531-96.219 37.031-96.219 37.031s-23.75-6.75-59.991-6.323c-32.973.388-65.469 10.594-94.047 26.815a209.9 209.9 0 0 0 -69.809 64.523l13.249 8.97a191.658 191.658 0 0 1 129.475-82.176l-40.034 40.034 11.314 11.314 53.6-53.6c1.517-.036 3.084-.057 4.743-.057a192.608 192.608 0 0 1 46.892 5.794l-124.549 124.549 11.314 11.314 130.634-130.634a192.032 192.032 0 0 1 85.047 60.325l-61.661 61.662 11.313 11.314 59.983-59.983q2.614 3.852 5.048 7.842c-20.373 45.557-61.015 100.587-112.138 151.7s-106.121 91.744-151.706 112.14q-3.975-2.424-7.833-5.053l60.979-60.98-11.313-11.314-62.65 62.65a194.71 194.71 0 0 1 -32.1-33l259.51-252.308-11.154-11.473-257.646 250.493c-1.352-2.124-2.672-4.274-3.939-6.448-.045-.082-.09-.164-.137-.245a189.787 189.787 0 0 1 -19.617-47.5 192.309 192.309 0 0 1 -6.277-48.845c0-1.656.021-3.221.059-4.745l117.6-117.6-11.314-11.314-104.091 104.091a189.239 189.239 0 0 1 21.266-62.586l-14.03-7.692a205.516 205.516 0 0 0 -25.312 91.322c-.12 2.7-.178 5.487-.178 8.524a208.294 208.294 0 0 0 6.8 52.9 205.648 205.648 0 0 0 19.308 48c-15.354 37.6-15.348 65.6.025 80.972 7.691 7.691 18.539 11.536 32.172 11.535 13.678 0 30.159-3.872 49.062-11.616 62.173-25.479 116.805-71.578 163.833-118.591 48.909-48.9 99.165-107.65 122.427-173.888 7.609-21.669 14.715-52.7-3.757-71.176-11.758-11.757-30.522-14.58-55.771-8.394l3.801 15.538c13.367-3.277 31.27-5.213 40.649 4.167 9.021 9.021 9.2 27.455.693 52.5-1.582-2.288-3.189-4.551-4.846-6.75a207.967 207.967 0 0 0 -94.994-70.6c28.8-14.646 55.7-24.024 78.573-27.286 18.5-2.64 43.847-2.5 59.523 13.177s15.829 41.027 13.19 59.523c-5.193 36.408-21.948 70.494-40.145 102.042-36.517 63.313-87.643 120.174-142.803 167.815a578.363 578.363 0 0 1 -86.919 62.59c-26.672 15.512-55.452 29.3-85.816 36.732-24.441 5.977-56.85 9.971-76.508-9.687-21.925-21.925-18.919-67.894 8.246-126.12l-14.5-6.766c-14.489 31.058-22.569 59.049-24.013 83.2-1.575 26.329 4.8 46.853 18.953 61 12.668 12.667 31 19.162 53.665 19.162 43.77 0 85.783-20.281 123.058-41.271 31.509-17.744 60.932-39.32 88.58-62.568 55.827-46.94 106.657-102.801 145.314-165.14a191.564 191.564 0 0 1 .935 50.958l-108.39 108.39 11.314 11.314 91.809-91.809a191.812 191.812 0 0 1 -135.62 135.613l27.809-27.809-11.314-11.314-44.4 44.4a195.68 195.68 0 0 1 -37.311.652l-1.266 15.949c-.124 1.57 39.339-.53 43.278-1.037a209.233 209.233 0 0 0 143.634-86.683zm-340.831 50.929c-8.875-8.874-9.025-27.689-.688-52.469.461.668.917 1.342 1.384 2a210.636 210.636 0 0 0 51.781 51.151c-24.795 8.343-43.604 8.192-52.477-.682z"/><path d="m76.863 245.75h106.773v16h-106.773z" transform="matrix(.707 -.707 .707 .707 -141.279 166.422)"/><path d="m316.686 216h22.627v16h-22.627z" transform="matrix(.707 -.707 .707 .707 -62.323 297.539)"/><path d="m196.877 281.833h130.579v16h-130.579z" transform="matrix(.707 -.707 .707 .707 -128.156 270.269)"/><path d="m120 16h16v16h-16z"/><path d="m216 24h16v16h-16z"/><path d="m16 120h16v16h-16z"/><path d="m32 160h16v16h-16z"/><path d="m456 352h16v16h-16z"/><path d="m472 416h16v16h-16z"/><path d="m432 432h-16v24h-16v16h16v24h16v-24h16v-16h-16z"/><path d="m56 104h16v-24h16v-16h-16v-24h-16v24h-16v16h16z"/><path d="m336 464h16v16h-16z"/><path d="m16 296h16v16h-16z"/><path d="m480 192h16v16h-16z"/><path d="m200 480h16v16h-16z"/></g></svg>