<svg id="Capa_1" enable-background="new 0 0 510.564 510.564" height="512" viewBox="0 0 510.564 510.564" width="512" xmlns="http://www.w3.org/2000/svg"><g><path d="m174.228 322.688-7.616-4.082c-10.445-5.597-16.934-16.436-16.934-28.287v-51.167c0-4.142-3.357-7.5-7.5-7.5s-7.5 3.358-7.5 7.5v51.167c0 17.39 9.521 33.294 24.849 41.508l7.616 4.082c1.149.616 1.864 1.81 1.864 3.114v63.433c0 4.142 3.357 7.5 7.5 7.5s7.5-3.358 7.5-7.5v-63.433c.001-6.843-3.747-13.103-9.779-16.335z"/><path d="m176.508 426.919c-4.143 0-7.5 3.358-7.5 7.5v68.645c0 4.142 3.357 7.5 7.5 7.5s7.5-3.358 7.5-7.5v-68.645c0-4.142-3.358-7.5-7.5-7.5z"/><path d="m368.385 132.516c-4.143 0-7.5 3.358-7.5 7.5v30.549h-49.635c-22.643 0-41.063 18.421-41.063 41.064 0 22.205 17.716 40.35 39.755 41.043v8.771c0 17.273 14.053 31.326 31.326 31.326h19.618v2.26c0 9.274-2.545 18.364-7.359 26.287l-11.407 18.779c-2.557 4.208-3.908 9.034-3.908 13.957v149.012c0 4.142 3.357 7.5 7.5 7.5s7.5-3.358 7.5-7.5v-149.012c0-2.176.597-4.309 1.728-6.168l11.407-18.779c6.241-10.271 9.54-22.054 9.54-34.076v-155.013c-.002-4.142-3.359-7.5-7.502-7.5zm-27.118 145.253c-9.002 0-16.326-7.324-16.326-16.326v-16.25c0-4.142-3.357-7.5-7.5-7.5h-6.191c-14.371 0-26.063-11.692-26.063-26.064s11.692-26.064 26.063-26.064h49.636v92.204z"/><path d="m345.711 43.865c-5.558 0-10.765 1.517-15.242 4.148-.991-15.75-14.112-28.263-30.108-28.263-5.777 0-11.177 1.634-15.769 4.461-2.776-13.792-14.983-24.211-29.581-24.211-16.639 0-30.175 13.536-30.175 30.175v2.88c-4.462-2.608-9.645-4.11-15.176-4.11-16.639 0-30.175 13.537-30.175 30.175v75.754c-3.761-1.515-7.862-2.358-12.159-2.358-18.002 0-32.648 14.646-32.648 32.648v42.025c0 4.142 3.357 7.5 7.5 7.5s7.5-3.358 7.5-7.5v-42.025c0-9.731 7.917-17.648 17.648-17.648 9.73 0 17.647 7.917 17.647 17.648v53.09c0 4.142 3.357 7.5 7.5 7.5s7.5-3.358 7.5-7.5v-53.09c0-6.688-2.024-12.91-5.488-18.093v-87.951c0-8.368 6.808-15.175 15.175-15.175 8.368 0 15.176 6.808 15.176 15.175v84.563c0 4.142 3.357 7.5 7.5 7.5s7.5-3.358 7.5-7.5v-113.508c0-8.367 6.808-15.175 15.175-15.175s15.175 6.808 15.175 15.175v113.508c0 4.142 3.357 7.5 7.5 7.5s7.5-3.358 7.5-7.5v-93.758c0-8.367 6.808-15.175 15.175-15.175s15.175 6.808 15.175 15.175v93.757c0 4.142 3.357 7.5 7.5 7.5s7.5-3.358 7.5-7.5v-69.642c0-8.368 6.808-15.175 15.175-15.175s15.175 6.808 15.175 15.175v34.014c0 4.142 3.357 7.5 7.5 7.5s7.5-3.358 7.5-7.5v-34.014c-.001-16.639-13.537-30.175-30.175-30.175z"/><path d="m239.218 268.208c0-13.543-11.019-24.561-24.562-24.561s-24.562 11.018-24.562 24.561 11.019 24.562 24.562 24.562 24.562-11.019 24.562-24.562zm-34.124 0c0-5.272 4.289-9.561 9.562-9.561s9.562 4.289 9.562 9.561-4.289 9.562-9.562 9.562-9.562-4.29-9.562-9.562z"/><path d="m305.091 333.604c0-11.219-9.128-20.346-20.347-20.346s-20.346 9.127-20.346 20.346 9.127 20.346 20.346 20.346 20.347-9.127 20.347-20.346zm-20.347 5.346c-2.947 0-5.346-2.398-5.346-5.346s2.398-5.346 5.346-5.346 5.347 2.398 5.347 5.346-2.399 5.346-5.347 5.346z"/><path d="m231.718 423.418c-12.41 0-22.507 10.096-22.507 22.506s10.097 22.506 22.507 22.506 22.506-10.096 22.506-22.506c-.001-12.409-10.096-22.506-22.506-22.506zm0 30.013c-4.14 0-7.507-3.367-7.507-7.506s3.367-7.506 7.507-7.506c4.139 0 7.506 3.367 7.506 7.506-.001 4.138-3.368 7.506-7.506 7.506z"/></g></svg>