<?xml version="1.0" encoding="iso-8859-1"?>
<!-- Generator: Adobe Illustrator 19.0.0, SVG Export Plug-In . SVG Version: 6.00 Build 0)  -->
<svg version="1.1" id="Layer_1" xmlns="http://www.w3.org/2000/svg" xmlns:xlink="http://www.w3.org/1999/xlink" x="0px" y="0px"
	 viewBox="0 0 512 512" style="enable-background:new 0 0 512 512;" xml:space="preserve">
<g>
	<g>
		<g>
			<path d="M365.351,116.335c2.97-2.97,2.97-7.786,0-10.756c-2.969-2.97-7.786-2.97-10.756,0l-29.398,29.398
				c-2.747,2.747-2.983,7.125-0.545,10.15c21.253,26.378,32.016,59.669,30.304,93.739c-1.723,34.315-16.026,66.567-40.274,90.815
				c-22.623,22.623-51.295,36.36-82.917,39.725c-3.868,0.412-6.802,3.674-6.802,7.563v40.554c0,4.201,3.405,7.606,7.606,7.606
				h47.826v16.226h-47.826c-4.201,0-7.606,3.405-7.606,7.606v47.826h-16.226v-47.826c0-4.201-3.405-7.606-7.606-7.606h-47.827
				v-16.226h47.827c4.201,0,7.606-3.405,7.606-7.606v-40.554c0-3.889-2.935-7.152-6.802-7.563
				c-31.622-3.365-60.293-17.101-82.917-39.725c-36.387-36.389-49.512-89.633-34.249-138.955c1.241-4.013-1.004-8.273-5.018-9.515
				c-4.011-1.241-8.272,1.005-9.515,5.018c-16.935,54.729-2.364,113.818,38.026,154.208c23.479,23.479,52.836,38.335,85.262,43.221
				v26.259H145.7c-4.201,0-7.606,3.405-7.606,7.606v31.438c0,4.201,3.405,7.606,7.606,7.606h47.826v47.826
				c0,4.201,3.405,7.606,7.606,7.606h31.438c4.201,0,7.606-3.405,7.605-7.606v-47.826h47.826c4.201,0,7.606-3.405,7.606-7.606
				v-31.438c0-4.201-3.405-7.606-7.606-7.606h-47.826v-26.259c32.425-4.885,61.783-19.741,85.262-43.221
				c26.919-26.919,42.797-62.72,44.711-100.808c1.784-35.505-8.65-70.258-29.475-98.617L365.351,116.335z"/>
			<path d="M216.853,353.978c32.621,0,63.29-12.703,86.357-35.771c47.618-47.618,47.618-125.097,0-172.715
				c-23.067-23.066-53.736-35.771-86.357-35.771s-63.29,12.703-86.357,35.771c-47.618,47.618-47.618,125.097,0,172.715
				C153.562,341.274,184.231,353.978,216.853,353.978z M141.251,156.249c20.194-20.194,47.043-31.315,75.602-31.315
				c28.558,0,55.406,11.122,75.601,31.315c41.686,41.687,41.686,109.515,0,151.202c-20.193,20.194-47.043,31.315-75.601,31.315
				c-28.559,0-55.407-11.122-75.602-31.315C99.565,265.765,99.565,197.936,141.251,156.249z"/>
			<path d="M441.097,0H323.581c-4.201,0-7.606,3.405-7.606,7.606v31.438c0,4.201,3.405,7.606,7.606,7.606h45.485l-61.362,61.36
				c-26.383-19.473-57.646-29.727-90.851-29.727c-41.02,0-79.583,15.974-108.587,44.979c-9.693,9.693-18.027,20.596-24.769,32.407
				c-2.083,3.648-0.813,8.294,2.834,10.377c1.19,0.68,2.485,1.002,3.763,1.002c2.641,0,5.209-1.377,6.611-3.836
				c6.072-10.634,13.579-20.456,22.315-29.192c26.131-26.131,60.875-40.523,97.831-40.523c31.995,0,61.982,10.561,86.721,30.542
				c3.026,2.444,7.408,2.211,10.158-0.539l79.077-79.077c2.175-2.175,2.826-5.447,1.649-8.289c-1.177-2.843-3.951-4.695-7.027-4.695
				h-56.242V15.212h102.304v102.306h-16.226V61.276c0-3.076-1.853-5.85-4.695-7.027c-2.841-1.178-6.113-0.527-8.289,1.648
				L372.85,87.328c-2.97,2.969-2.97,7.786,0,10.756c2.969,2.97,7.785,2.969,10.756,0l18.447-18.447v45.485
				c0,4.201,3.405,7.606,7.606,7.606h31.438c4.201,0,7.606-3.405,7.606-7.606V7.606C448.703,3.405,445.297,0,441.097,0z"/>
		</g>
	</g>
</g>
<g>
</g>
<g>
</g>
<g>
</g>
<g>
</g>
<g>
</g>
<g>
</g>
<g>
</g>
<g>
</g>
<g>
</g>
<g>
</g>
<g>
</g>
<g>
</g>
<g>
</g>
<g>
</g>
<g>
</g>
</svg>
